<?xml version="1.0" encoding="utf-8"?>
<!-- Generator: Adobe Illustrator 16.0.0, SVG Export Plug-In . SVG Version: 6.00 Build 0)  -->
<!DOCTYPE svg PUBLIC "-//W3C//DTD SVG 1.1//EN" "http://www.w3.org/Graphics/SVG/1.1/DTD/svg11.dtd">
<svg version="1.1" id="Layer_1" xmlns="http://www.w3.org/2000/svg" xmlns:xlink="http://www.w3.org/1999/xlink" x="0px" y="0px"
	 width="1200px" height="675px" viewBox="0 0 1200 675" enable-background="new 0 0 1200 675" xml:space="preserve">
<text transform="matrix(1 0 0 1 51.6431 564.6416)" font-family="'MyriadPro-Regular'" font-size="441.518">Apple</text>
<g>
	<g>
		<path fill="#A7AAAB" d="M674.948,156.385c-0.309-34.396,27.748-50.912,28.976-51.68c-15.756-23.374-40.341-26.628-49.049-27.013
			c-20.921-2.134-40.843,12.493-51.417,12.493c-10.607,0-26.986-12.143-44.297-11.793c-22.841,0.315-43.812,13.437-55.56,34.044
			c-23.669,41.605-6.081,103.258,17.035,136.989c11.262,16.516,24.687,35.061,42.324,34.396
			c17.037-0.664,23.464-11.129,44.022-11.129c20.526,0,26.332,11.129,44.335,10.85c18.278-0.385,29.888-16.902,41.05-33.417
			c12.923-19.174,18.297-37.72,18.607-38.698C710.574,211.286,675.297,197.571,674.948,156.385z"/>
		<path fill="#A7AAAB" d="M641.121,55.367c9.4-11.477,15.725-27.467,13.979-43.388c-13.495,0.526-29.854,9.132-39.514,20.575
			c-8.708,10.217-16.344,26.522-14.27,42.094C616.346,75.803,631.778,66.879,641.121,55.367z"/>
	</g>
</g>
</svg>
