<?xml version="1.0" encoding="iso-8859-1"?>
<!-- Generator: Adobe Illustrator 16.0.0, SVG Export Plug-In . SVG Version: 6.00 Build 0)  -->
<!DOCTYPE svg PUBLIC "-//W3C//DTD SVG 1.1//EN" "http://www.w3.org/Graphics/SVG/1.1/DTD/svg11.dtd">
<svg version="1.1" id="Layer_1" xmlns="http://www.w3.org/2000/svg" xmlns:xlink="http://www.w3.org/1999/xlink" x="0px" y="0px"
	 width="960px" height="560px" viewBox="0 0 960 560" style="enable-background:new 0 0 960 560;" xml:space="preserve">
<g>
	<path d="M158.636,413.477c-1.54,0-2.694-0.325-3.463-0.963c-0.771-0.643-1.54-2.5-2.31-5.579l-15.778-66.577H69.739l-15.778,66.577
		c-0.518,3.589-1.154,5.579-1.925,5.965c-0.769,0.384-2.056,0.577-3.848,0.577H17.786c-4.618,0-6.157-2.183-4.618-6.542
		L79.36,150.634c0.77-2.051,1.347-3.271,1.731-3.655c0.385-0.385,1.858-0.578,4.426-0.578h35.79c2.309,0,3.716,0.193,4.233,0.578
		c0.511,0.384,1.155,1.604,1.924,3.655l66.192,256.301c1.281,4.359-0.258,6.542-4.618,6.542H158.636z M78.975,299.951h48.489
		l-24.245-106.793L78.975,299.951z"/>
	<path d="M266.775,311.11v97.362c0,3.331-1.672,5.004-5.002,5.004h-32.711c-3.079,0-4.619-1.673-4.619-5.004V151.019
		c0-1.281,0.446-2.37,1.348-3.271c0.896-0.896,1.984-1.348,3.271-1.348h56.571c28.478,0,50.99,6.927,67.538,20.782
		c16.548,13.854,24.822,34.124,24.822,60.804c0,14.112-2.375,25.976-7.119,35.597c-4.751,9.621-11.418,18.086-20.011,25.399
		c-8.599,7.313-18.731,12.832-30.403,16.547c-11.677,3.724-24.437,5.581-38.291,5.581H266.775z M266.775,186.808v84.28h16.548
		c16.163,0,28.796-3.717,37.906-11.161c9.104-7.438,13.661-18.214,13.661-32.326c0-14.624-3.98-25.075-11.93-31.364
		c-7.956-6.284-18.346-9.429-31.172-9.429H266.775z"/>
	<path d="M459.192,311.11v97.362c0,3.331-1.672,5.004-5.002,5.004h-32.711c-3.079,0-4.618-1.673-4.618-5.004V151.019
		c0-1.281,0.446-2.37,1.347-3.271c0.896-0.896,1.984-1.348,3.271-1.348h56.571c28.476,0,50.99,6.927,67.538,20.782
		c16.547,13.854,24.822,34.124,24.822,60.804c0,14.112-2.373,25.976-7.121,35.597s-11.418,18.086-20.01,25.399
		c-8.598,7.313-18.73,12.832-30.399,16.547c-11.679,3.724-24.438,5.581-38.293,5.581H459.192z M459.192,186.808v84.28h16.548
		c16.165,0,28.797-3.717,37.906-11.161c9.104-7.438,13.661-18.214,13.661-32.326c0-14.624-3.979-25.075-11.93-31.364
		c-7.954-6.284-18.344-9.429-31.172-9.429H459.192z"/>
	<path d="M618.515,413.477c-1.287,0-2.376-0.451-3.272-1.348c-0.9-0.902-1.347-1.989-1.347-3.27v-257.84
		c0-1.281,0.446-2.37,1.347-3.271c0.896-0.896,1.985-1.348,3.272-1.348h34.251c1.28,0,2.367,0.451,3.27,1.348
		c0.896,0.901,1.348,1.99,1.348,3.271v222.048h92.359c3.079,0,4.619,1.673,4.619,5.004v30.788c0,1.28-0.451,2.367-1.348,3.27
		c-0.902,0.896-1.989,1.348-3.271,1.348H618.515z"/>
	<path d="M813.624,413.477c-5.134,0-8.213-0.451-9.234-1.348c-1.029-0.902-1.541-4.172-1.541-9.814V156.792
		c0-5.129,0.445-8.142,1.348-9.043c0.896-0.896,3.782-1.348,8.66-1.348h124.301c2.818,0,4.484,0.451,5.001,1.348
		c0.513,0.901,0.771,2.501,0.771,4.811v27.708c0,2.568-0.384,4.299-1.154,5.196c-0.771,0.901-2.309,1.346-4.617,1.346h-91.975
		v69.656h86.971c3.85,0,5.771,2.056,5.771,6.157v27.709c0,4.365-1.922,6.542-5.771,6.542h-86.971v76.195h96.592
		c3.589,0,5.388,2.184,5.388,6.542v27.709c0,4.102-1.799,6.158-5.388,6.158H813.624z"/>
</g>
</svg>
