<?xml version="1.0" encoding="iso-8859-1"?>
<!-- Generator: Adobe Illustrator 16.0.0, SVG Export Plug-In . SVG Version: 6.00 Build 0)  -->
<!DOCTYPE svg PUBLIC "-//W3C//DTD SVG 1.1//EN" "http://www.w3.org/Graphics/SVG/1.1/DTD/svg11.dtd">
<svg version="1.1" id="Layer_1" xmlns="http://www.w3.org/2000/svg" xmlns:xlink="http://www.w3.org/1999/xlink" x="0px" y="0px"
	 width="600px" height="600px" viewBox="0 0 600 600" style="enable-background:new 0 0 600 600;" xml:space="preserve">
<g>
	<path style="fill:#0A0707;" d="M511.892,203.604c0,0-55.107-85.224-169.166-41.01c0,0-21.785,21.146-60.873,5.767
		c0,0-99.321-62.156-178.778,43.573c0,0-95.904,152.509,67.282,341.323c0,0,36.74,43.574,91.419,11.106
		c0,0,38.445-27.341,100.815,3.416c0,0,56.391,35.885,103.381-31.61c0,0,50.408-58.952,58.951-110.215
		c0,0-69.205-33.32-71.768-111.067C453.155,314.887,446.745,252.944,511.892,203.604z"/>
	<path style="fill:#0A0707;" d="M405.31,22.69c0,0-116.196,17.088-106.796,133.283C298.513,155.973,409.583,153.41,405.31,22.69z"/>
</g>
</svg>
